<svg width="80" height="26" viewBox="0 0 80 26" fill="none" xmlns="http://www.w3.org/2000/svg">
<path d="M14.75 24.9788C19.718 24.9788 22.49 22.4588 22.49 18.3188C22.49 15.1508 20.474 12.9188 16.37 12.4508V12.1988C20.042 11.7668 21.626 9.64276 21.626 6.79876C21.626 2.98276 18.854 0.858759 14.246 0.858759H0.745977V24.9788H14.75ZM4.59798 4.35076H13.814C16.514 4.35076 17.774 5.39476 17.774 7.66276C17.774 9.93076 16.406 10.9748 13.706 10.9748H4.59798V4.35076ZM4.59798 14.1788H14.318C17.162 14.1788 18.602 15.2588 18.602 17.7788C18.602 20.4068 17.198 21.4868 14.318 21.4868H4.59798V14.1788ZM35.808 4.81876L41.784 0.138758H36.348L31.74 4.81876H35.808ZM34.008 25.3388C39.336 25.3388 43.08 22.7108 43.08 18.8948V18.5708H39.192V18.8588C39.192 20.9828 37.644 22.2068 33.9 22.2068C29.76 22.2068 28.068 20.3708 27.924 16.9148H43.116C43.224 16.3748 43.26 15.8708 43.26 15.2228C43.26 9.78676 39.48 6.72676 33.936 6.72676C28.104 6.72676 24.288 10.4708 24.288 16.0508C24.288 22.0268 28.14 25.3388 34.008 25.3388ZM33.864 9.78676C37.68 9.78676 39.588 11.3708 39.588 14.6828V14.7548H27.96C28.176 11.5508 29.904 9.78676 33.864 9.78676ZM50.0601 24.9788V16.1228C50.0601 12.2348 51.8241 10.2188 55.7481 10.2188C59.4561 10.2188 60.9681 11.9108 60.9681 15.2588V24.9788H64.8561V14.2148C64.8561 10.0748 62.4081 6.72676 57.4401 6.72676C52.9041 6.72676 50.5281 9.60676 49.9881 12.6308H49.7361V7.08676H46.1721V24.9788H50.0601ZM72.2085 4.99876V0.858759H68.3205V4.99876H72.2085ZM72.2085 24.9788V7.08676H68.3205V24.9788H72.2085Z" fill="white"/>
<path d="M79.9848 24.9788V19.3988H75.0888V24.9788H79.9848Z" fill="#FF066C"/>
</svg>
