<svg width="226" height="227" viewBox="0 0 226 227" fill="none" xmlns="http://www.w3.org/2000/svg">
<path d="M112.903 0.366875C175.247 0.366875 225.787 50.9069 225.787 113.251C225.787 175.595 175.247 226.135 112.903 226.135C50.5592 226.135 0.0195312 175.595 0.0195312 113.251C0.0195312 50.9069 50.5592 0.366875 112.903 0.366875" fill="url(#paint0_linear_410_9)"/>
<path d="M170.676 84.6432C175.444 56.6578 157.202 39.8672 129.216 39.8672H108.178L103.292 71.1645L65.9663 71.1712L62.3147 97.2853L99.5724 97.2889L103.304 71.1685H124.863C143.52 71.1685 139.167 97.2889 121.132 97.2889H99.5724L95.8412 124.031H117.401C139.374 124.031 135.643 154.089 113.254 154.089H91.6954L87.1464 186.627L109.73 186.635C142.276 186.635 160.104 172.331 167.152 148.699C170.676 137.505 170.883 118.64 152.019 108.483C163.42 103.093 169.432 91.2778 170.676 84.6432V84.6432ZM91.6954 154.089L95.8412 124.031L58.5735 124.037L54.374 154.072L91.6954 154.089" fill="white"/>
<defs>
<linearGradient id="paint0_linear_410_9" x1="179.255" y1="204.576" x2="46.5518" y2="21.9322" gradientUnits="userSpaceOnUse">
<stop stop-color="#FF0066"/>
<stop offset="1" stop-color="#FF3399"/>
</linearGradient>
</defs>
</svg>
