<svg width="80" height="26" viewBox="0 0 80 26" fill="none" xmlns="http://www.w3.org/2000/svg">
<path d="M14.75 25.0642C19.718 25.0642 22.49 22.5442 22.49 18.4042C22.49 15.2362 20.474 13.0042 16.37 12.5362V12.2842C20.042 11.8522 21.626 9.72821 21.626 6.88421C21.626 3.06821 18.854 0.944208 14.246 0.944208H0.745977V25.0642H14.75ZM4.59798 4.43621H13.814C16.514 4.43621 17.774 5.48021 17.774 7.74821C17.774 10.0162 16.406 11.0602 13.706 11.0602H4.59798V4.43621ZM4.59798 14.2642H14.318C17.162 14.2642 18.602 15.3442 18.602 17.8642C18.602 20.4922 17.198 21.5722 14.318 21.5722H4.59798V14.2642ZM35.808 4.90421L41.784 0.224207H36.348L31.74 4.90421H35.808ZM34.008 25.4242C39.336 25.4242 43.08 22.7962 43.08 18.9802V18.6562H39.192V18.9442C39.192 21.0682 37.644 22.2922 33.9 22.2922C29.76 22.2922 28.068 20.4562 27.924 17.0002H43.116C43.224 16.4602 43.26 15.9562 43.26 15.3082C43.26 9.87221 39.48 6.81221 33.936 6.81221C28.104 6.81221 24.288 10.5562 24.288 16.1362C24.288 22.1122 28.14 25.4242 34.008 25.4242ZM33.864 9.87221C37.68 9.87221 39.588 11.4562 39.588 14.7682V14.8402H27.96C28.176 11.6362 29.904 9.87221 33.864 9.87221ZM50.0601 25.0642V16.2082C50.0601 12.3202 51.8241 10.3042 55.7481 10.3042C59.4561 10.3042 60.9681 11.9962 60.9681 15.3442V25.0642H64.8561V14.3002C64.8561 10.1602 62.4081 6.81221 57.4401 6.81221C52.9041 6.81221 50.5281 9.69221 49.9881 12.7162H49.7361V7.17221H46.1721V25.0642H50.0601ZM72.2085 5.08421V0.944208H68.3205V5.08421H72.2085ZM72.2085 25.0642V7.17221H68.3205V25.0642H72.2085Z" fill="#20242B"/>
<path d="M79.9848 25.0642V19.4842H75.0888V25.0642H79.9848Z" fill="#FF066C"/>
</svg>
